<svg id="SvgjsSvg1006" width="822" height="1321" xmlns="http://www.w3.org/2000/svg" version="1.1" xmlns:xlink="http://www.w3.org/1999/xlink" xmlns:svgjs="http://svgjs.com/svgjs"><defs id="SvgjsDefs1007"><pattern patternUnits="userSpaceOnUse" id="pattern_mark_0" width="300" height="300"><text x="150" y="100" fill="rgba(229,229,229,0.8)" font-size="18" transform="rotate(-45, 150, 150)" style="dominant-baseline: middle; text-anchor: middle;"></text></pattern><pattern patternUnits="userSpaceOnUse" id="pattern_mark_1" width="300" height="300"><text x="150" y="200" fill="rgba(229,229,229,0.8)" font-size="18" transform="rotate(-45, 150, 150)" style="dominant-baseline: middle; text-anchor: middle;"></text></pattern><marker id="SvgjsMarker1091" markerWidth="12" markerHeight="8" refX="9" refY="4" viewBox="0 0 12 8" orient="auto" markerUnits="userSpaceOnUse" stroke-dasharray="0,0"><path id="SvgjsPath1092" d="M0,0 L12,4 L0,8 L0,0" fill="#323232" stroke="#323232" stroke-width="1"></path></marker><marker id="SvgjsMarker1095" markerWidth="12" markerHeight="8" refX="9" refY="4" viewBox="0 0 12 8" orient="auto" markerUnits="userSpaceOnUse" stroke-dasharray="0,0"><path id="SvgjsPath1096" d="M0,0 L12,4 L0,8 L0,0" fill="#323232" stroke="#323232" stroke-width="1"></path></marker><marker id="SvgjsMarker1099" markerWidth="12" markerHeight="8" refX="9" refY="4" viewBox="0 0 12 8" orient="auto" markerUnits="userSpaceOnUse" stroke-dasharray="0,0"><path id="SvgjsPath1100" d="M0,0 L12,4 L0,8 L0,0" fill="#323232" stroke="#323232" stroke-width="1"></path></marker><marker id="SvgjsMarker1103" markerWidth="12" markerHeight="8" refX="9" refY="4" viewBox="0 0 12 8" orient="auto" markerUnits="userSpaceOnUse" stroke-dasharray="0,0"><path id="SvgjsPath1104" d="M0,0 L12,4 L0,8 L0,0" fill="#323232" stroke="#323232" stroke-width="1"></path></marker><marker id="SvgjsMarker1107" markerWidth="12" markerHeight="8" refX="9" refY="4" viewBox="0 0 12 8" orient="auto" markerUnits="userSpaceOnUse" stroke-dasharray="0,0"><path id="SvgjsPath1108" d="M0,0 L12,4 L0,8 L0,0" fill="#323232" stroke="#323232" stroke-width="1"></path></marker><marker id="SvgjsMarker1111" markerWidth="12" markerHeight="8" refX="9" refY="4" viewBox="0 0 12 8" orient="auto" markerUnits="userSpaceOnUse" stroke-dasharray="0,0"><path id="SvgjsPath1112" d="M0,0 L12,4 L0,8 L0,0" fill="#323232" stroke="#323232" stroke-width="1"></path></marker><marker id="SvgjsMarker1115" markerWidth="12" markerHeight="8" refX="9" refY="4" viewBox="0 0 12 8" orient="auto" markerUnits="userSpaceOnUse" stroke-dasharray="0,0"><path id="SvgjsPath1116" d="M0,0 L12,4 L0,8 L0,0" fill="#323232" stroke="#323232" stroke-width="1"></path></marker><marker id="SvgjsMarker1125" markerWidth="12" markerHeight="8" refX="9" refY="4" viewBox="0 0 12 8" orient="auto" markerUnits="userSpaceOnUse" stroke-dasharray="0,0"><path id="SvgjsPath1126" d="M0,0 L12,4 L0,8 L0,0" fill="#323232" stroke="#323232" stroke-width="1"></path></marker><marker id="SvgjsMarker1129" markerWidth="12" markerHeight="8" refX="9" refY="4" viewBox="0 0 12 8" orient="auto" markerUnits="userSpaceOnUse" stroke-dasharray="0,0"><path id="SvgjsPath1130" d="M0,0 L12,4 L0,8 L0,0" fill="#323232" stroke="#323232" stroke-width="1"></path></marker><marker id="SvgjsMarker1133" markerWidth="12" markerHeight="8" refX="9" refY="4" viewBox="0 0 12 8" orient="auto" markerUnits="userSpaceOnUse" stroke-dasharray="0,0"><path id="SvgjsPath1134" d="M0,0 L12,4 L0,8 L0,0" fill="#323232" stroke="#323232" stroke-width="1"></path></marker><marker id="SvgjsMarker1137" markerWidth="12" markerHeight="8" refX="9" refY="4" viewBox="0 0 12 8" orient="auto" markerUnits="userSpaceOnUse" stroke-dasharray="0,0"><path id="SvgjsPath1138" d="M0,0 L12,4 L0,8 L0,0" fill="#323232" stroke="#323232" stroke-width="1"></path></marker><marker id="SvgjsMarker1141" markerWidth="12" markerHeight="8" refX="9" refY="4" viewBox="0 0 12 8" orient="auto" markerUnits="userSpaceOnUse" stroke-dasharray="0,0"><path id="SvgjsPath1142" d="M0,0 L12,4 L0,8 L0,0" fill="#323232" stroke="#323232" stroke-width="1"></path></marker><marker id="SvgjsMarker1145" markerWidth="12" markerHeight="8" refX="9" refY="4" viewBox="0 0 12 8" orient="auto" markerUnits="userSpaceOnUse" stroke-dasharray="0,0"><path id="SvgjsPath1146" d="M0,0 L12,4 L0,8 L0,0" fill="#323232" stroke="#323232" stroke-width="1"></path></marker></defs><rect id="svgbackgroundid" width="822" height="1321" fill="transparent"></rect><rect id="SvgjsRect1009" width="822" height="1321" fill="url(#pattern_mark_0)"></rect><rect id="SvgjsRect1010" width="822" height="1321" fill="url(#pattern_mark_1)"></rect><g id="SvgjsG1011" transform="translate(345.75,25)"><path id="SvgjsPath1012" d="M 0 48.5C 0 -16.166666666666668 97 -16.166666666666668 97 48.5C 97 113.16666666666667 0 113.16666666666667 0 48.5Z" stroke="rgba(33,41,48,1)" stroke-width="2" fill-opacity="1" fill="#000000"></path><g id="SvgjsG1013"><text id="SvgjsText1014" font-family="微软雅黑" text-anchor="middle" font-size="20px" width="77px" fill="#ffffff" font-weight="400" align="middle" lineHeight="125%" anchor="middle" family="微软雅黑" size="20px" weight="400" font-style="" opacity="1" y="30.5" transform="rotate(0)"><tspan id="SvgjsTspan1015" dy="25" x="48.5"><tspan id="SvgjsTspan1016" style="text-decoration:;">开始</tspan></tspan></text></g></g><g id="SvgjsG1017" transform="translate(272,219)"><path id="SvgjsPath1018" d="M 0 4Q 0 0 4 0L 240.5 0Q 244.5 0 244.5 4L 244.5 50Q 244.5 54 240.5 54L 4 54Q 0 54 0 50Z" stroke="rgba(33,41,48,1)" stroke-width="1" fill-opacity="1" fill="#67ab9f"></path><g id="SvgjsG1019"><text id="SvgjsText1020" font-family="微软雅黑" text-anchor="middle" font-size="20px" width="225px" fill="#323232" font-weight="700" align="middle" lineHeight="125%" anchor="middle" family="微软雅黑" size="20px" weight="700" font-style="" opacity="1" y="9" transform="rotate(0)"><tspan id="SvgjsTspan1021" dy="25" x="122.5"><tspan id="SvgjsTspan1022" style="text-decoration:;">解析 appConfig</tspan></tspan></text></g></g><g id="SvgjsG1023" transform="translate(272,370)"><path id="SvgjsPath1024" d="M 0 4Q 0 0 4 0L 240.5 0Q 244.5 0 244.5 4L 244.5 50Q 244.5 54 240.5 54L 4 54Q 0 54 0 50Z" stroke="rgba(33,41,48,1)" stroke-width="1" fill-opacity="1" fill="#f19c99"></path><g id="SvgjsG1025"><text id="SvgjsText1026" font-family="微软雅黑" text-anchor="middle" font-size="20px" width="225px" fill="#323232" font-weight="700" align="middle" lineHeight="125%" anchor="middle" family="微软雅黑" size="20px" weight="700" font-style="" opacity="1" y="9" transform="rotate(0)"><tspan id="SvgjsTspan1027" dy="25" x="122.5"><tspan id="SvgjsTspan1028" style="text-decoration:;">注册 appConfig</tspan></tspan></text></g></g><g id="SvgjsG1029" transform="translate(272,521)"><path id="SvgjsPath1030" d="M 0 4Q 0 0 4 0L 240.5 0Q 244.5 0 244.5 4L 244.5 50Q 244.5 54 240.5 54L 4 54Q 0 54 0 50Z" stroke="rgba(33,41,48,1)" stroke-width="1" fill-opacity="1" fill="#67ab9f"></path><g id="SvgjsG1031"><text id="SvgjsText1032" font-family="微软雅黑" text-anchor="middle" font-size="20px" width="225px" fill="#323232" font-weight="700" align="middle" lineHeight="125%" anchor="middle" family="微软雅黑" size="20px" weight="700" font-style="" opacity="1" y="9" transform="rotate(0)"><tspan id="SvgjsTspan1033" dy="25" x="122.5"><tspan id="SvgjsTspan1034" style="text-decoration:;">注册 start 命令</tspan></tspan></text></g></g><g id="SvgjsG1035" transform="translate(272,638)"><path id="SvgjsPath1036" d="M 0 4Q 0 0 4 0L 240.5 0Q 244.5 0 244.5 4L 244.5 50Q 244.5 54 240.5 54L 4 54Q 0 54 0 50Z" stroke="rgba(33,41,48,1)" stroke-width="1" fill-opacity="1" fill="#67ab9f"></path><g id="SvgjsG1037"><text id="SvgjsText1038" font-family="微软雅黑" text-anchor="middle" font-size="20px" width="225px" fill="#323232" font-weight="700" align="middle" lineHeight="125%" anchor="middle" family="微软雅黑" size="20px" weight="700" font-style="" opacity="1" y="9" transform="rotate(0)"><tspan id="SvgjsTspan1039" dy="25" x="122.5"><tspan id="SvgjsTspan1040" style="text-decoration:;">执行 start 命令</tspan></tspan></text></g></g><g id="SvgjsG1041" transform="translate(247.75,755)"><path id="SvgjsPath1042" d="M 0 4Q 0 0 4 0L 289 0Q 293 0 293 4L 293 50Q 293 54 289 54L 4 54Q 0 54 0 50Z" stroke="rgba(33,41,48,1)" stroke-width="1" fill-opacity="1" fill="#f19c99"></path><g id="SvgjsG1043"><text id="SvgjsText1044" font-family="微软雅黑" text-anchor="middle" font-size="20px" width="273px" fill="#323232" font-weight="700" align="middle" lineHeight="125%" anchor="middle" family="微软雅黑" size="20px" weight="700" font-style="" opacity="1" y="9" transform="rotate(0)"><tspan id="SvgjsTspan1045" dy="25" x="146.5"><tspan id="SvgjsTspan1046" style="text-decoration:;">注册 kit 中的页面</tspan></tspan></text></g></g><g id="SvgjsG1047" transform="translate(247.75,872)"><path id="SvgjsPath1048" d="M 0 4Q 0 0 4 0L 289 0Q 293 0 293 4L 293 109Q 293 113 289 113L 4 113Q 0 113 0 109Z" stroke="rgba(33,41,48,1)" stroke-width="1" fill-opacity="1" fill="#f19c99"></path><g id="SvgjsG1049"><text id="SvgjsText1050" font-family="微软雅黑" text-anchor="middle" font-size="20px" width="273px" fill="#323232" font-weight="400" align="middle" lineHeight="125%" anchor="middle" family="微软雅黑" size="20px" weight="400" font-style="" opacity="1" y="13.5" transform="rotate(0)"><tspan id="SvgjsTspan1051" dy="25" x="146.5"><tspan id="SvgjsTspan1052" style="text-decoration:;font-weight: bold;">注册 kit 中的 </tspan></tspan><tspan id="SvgjsTspan1053" dy="25" x="146.5"><tspan id="SvgjsTspan1054" style="text-decoration:;font-weight: bold;">server function</tspan></tspan><tspan id="SvgjsTspan1055" dy="25" x="146.5"><tspan id="SvgjsTspan1056" style="text-decoration:;">（动态注册 Vite 插件）</tspan></tspan></text></g></g><g id="SvgjsG1057" transform="translate(247.75,1048)"><path id="SvgjsPath1058" d="M 0 4Q 0 0 4 0L 289 0Q 293 0 293 4L 293 84Q 293 88 289 88L 4 88Q 0 88 0 84Z" stroke="rgba(33,41,48,1)" stroke-width="1" fill-opacity="1" fill="#67ab9f"></path><g id="SvgjsG1059"><text id="SvgjsText1060" font-family="微软雅黑" text-anchor="middle" font-size="20px" width="273px" fill="#323232" font-weight="400" align="middle" lineHeight="125%" anchor="middle" family="微软雅黑" size="20px" weight="400" font-style="" opacity="1" y="13.5" transform="rotate(0)"><tspan id="SvgjsTspan1061" dy="25" x="146.5"><tspan id="SvgjsTspan1062" style="text-decoration:;font-weight: bold;">启动 GUI</tspan></tspan><tspan id="SvgjsTspan1063" dy="25" x="146.5"><tspan id="SvgjsTspan1064" style="text-decoration:;">（动态注册 Vite 插件）</tspan></tspan></text></g></g><g id="SvgjsG1065" transform="translate(552,521)"><path id="SvgjsPath1066" d="M 0 4Q 0 0 4 0L 240.5 0Q 244.5 0 244.5 4L 244.5 50Q 244.5 54 240.5 54L 4 54Q 0 54 0 50Z" stroke="rgba(33,41,48,1)" stroke-width="1" fill-opacity="1" fill="#f19c99"></path><g id="SvgjsG1067"><text id="SvgjsText1068" font-family="微软雅黑" text-anchor="middle" font-size="20px" width="225px" fill="#323232" font-weight="700" align="middle" lineHeight="125%" anchor="middle" family="微软雅黑" size="20px" weight="700" font-style="" opacity="1" y="9" transform="rotate(0)"><tspan id="SvgjsTspan1069" dy="25" x="122.5"><tspan id="SvgjsTspan1070" style="text-decoration:;">注册 kit 中的命令</tspan></tspan></text></g></g><g id="SvgjsG1071" transform="translate(25,148)"><path id="SvgjsPath1072" d="M 0 4Q 0 0 4 0L 174.25 0Q 178.25 0 178.25 4L 178.25 39Q 178.25 43 174.25 43L 4 43Q 0 43 0 39Z" stroke-dasharray="10,6" stroke="rgba(33,41,48,1)" stroke-width="1" fill-opacity="1" fill="#9acfbf"></path><g id="SvgjsG1073"><text id="SvgjsText1074" font-family="微软雅黑" text-anchor="middle" font-size="16px" width="159px" fill="#323232" font-weight="400" align="middle" lineHeight="125%" anchor="middle" family="微软雅黑" size="16px" weight="400" font-style="" opacity="1" y="7.5" transform="rotate(0)"><tspan id="SvgjsTspan1075" dy="20" x="89.5"><tspan id="SvgjsTspan1076" style="text-decoration:;">解析 userConfig</tspan></tspan></text></g></g><g id="SvgjsG1077" transform="translate(25,224.5)"><path id="SvgjsPath1078" d="M 0 4Q 0 0 4 0L 174.25 0Q 178.25 0 178.25 4L 178.25 39Q 178.25 43 174.25 43L 4 43Q 0 43 0 39Z" stroke-dasharray="10,6" stroke="rgba(33,41,48,1)" stroke-width="1" fill-opacity="1" fill="#9acfbf"></path><g id="SvgjsG1079"><text id="SvgjsText1080" font-family="微软雅黑" text-anchor="middle" font-size="16px" width="159px" fill="#323232" font-weight="400" align="middle" lineHeight="125%" anchor="middle" family="微软雅黑" size="16px" weight="400" font-style="" opacity="1" y="7.5" transform="rotate(0)"><tspan id="SvgjsTspan1081" dy="20" x="89.5"><tspan id="SvgjsTspan1082" style="text-decoration:;">解析 plugins</tspan></tspan></text></g></g><g id="SvgjsG1083" transform="translate(25,301)"><path id="SvgjsPath1084" d="M 0 4Q 0 0 4 0L 174.25 0Q 178.25 0 178.25 4L 178.25 39Q 178.25 43 174.25 43L 4 43Q 0 43 0 39Z" stroke-dasharray="10,6" stroke="rgba(33,41,48,1)" stroke-width="1" fill-opacity="1" fill="#9acfbf"></path><g id="SvgjsG1085"><text id="SvgjsText1086" font-family="微软雅黑" text-anchor="middle" font-size="16px" width="159px" fill="#323232" font-weight="400" align="middle" lineHeight="125%" anchor="middle" family="微软雅黑" size="16px" weight="400" font-style="" opacity="1" y="7.5" transform="rotate(0)"><tspan id="SvgjsTspan1087" dy="20" x="89.5"><tspan id="SvgjsTspan1088" style="text-decoration:;">缓存页面组件</tspan></tspan></text></g></g><g id="SvgjsG1089"><path id="SvgjsPath1090" d="M394.25 123L394.25 170.5L394.25 170.5L394.25 217.2" stroke="#323232" stroke-width="1" fill="none" marker-end="url(#SvgjsMarker1091)"></path></g><g id="SvgjsG1093"><path id="SvgjsPath1094" d="M394.25 273.5L394.25 321.5L394.25 321.5L394.25 368.2" stroke="#323232" stroke-width="1" fill="none" marker-end="url(#SvgjsMarker1095)"></path></g><g id="SvgjsG1097"><path id="SvgjsPath1098" d="M394.25 424.5L394.25 472.5L394.25 472.5L394.25 519.2" stroke-dasharray="8,5" stroke="#323232" stroke-width="1" fill="none" marker-end="url(#SvgjsMarker1099)"></path></g><g id="SvgjsG1101"><path id="SvgjsPath1102" d="M394.25 575.5L394.25 606.5L394.25 606.5L394.25 636.2" stroke="#323232" stroke-width="1" fill="none" marker-end="url(#SvgjsMarker1103)"></path></g><g id="SvgjsG1105"><path id="SvgjsPath1106" d="M394.25 692.5L394.25 723.5L394.25 723.5L394.25 753.2" stroke="#323232" stroke-width="1" fill="none" marker-end="url(#SvgjsMarker1107)"></path></g><g id="SvgjsG1109"><path id="SvgjsPath1110" d="M394.25 809.5L394.25 840.5L394.25 840.5L394.25 870.2" stroke="#323232" stroke-width="1" fill="none" marker-end="url(#SvgjsMarker1111)"></path></g><g id="SvgjsG1113"><path id="SvgjsPath1114" d="M394.25 985.5L394.25 1016.5L394.25 1016.5L394.25 1046.2" stroke="#323232" stroke-width="1" fill="none" marker-end="url(#SvgjsMarker1115)"></path></g><g id="SvgjsG1117" transform="translate(345.75,1199)"><path id="SvgjsPath1118" d="M 0 48.5C 0 -16.166666666666668 97 -16.166666666666668 97 48.5C 97 113.16666666666667 0 113.16666666666667 0 48.5Z" stroke="rgba(33,41,48,1)" stroke-width="2" fill-opacity="1" fill="#000000"></path><g id="SvgjsG1119"><text id="SvgjsText1120" font-family="微软雅黑" text-anchor="middle" font-size="20px" width="77px" fill="#ffffff" font-weight="700" align="middle" lineHeight="125%" anchor="middle" family="微软雅黑" size="20px" weight="700" font-style="" opacity="1" y="30.5" transform="rotate(0)"><tspan id="SvgjsTspan1121" dy="25" x="48.5"><tspan id="SvgjsTspan1122" style="text-decoration:;">结束</tspan></tspan></text></g></g><g id="SvgjsG1123"><path id="SvgjsPath1124" d="M394.25 1136.5L394.25 1167.5L394.25 1167.5L394.25 1196.7" stroke="#323232" stroke-width="1" fill="none" marker-end="url(#SvgjsMarker1125)"></path></g><g id="SvgjsG1127"><path id="SvgjsPath1128" d="M432.25 424.5L432.25 472.5L674.25 472.5L674.25 519.2" stroke-dasharray="8,5" stroke="#323232" stroke-width="1" fill="none" marker-end="url(#SvgjsMarker1129)"></path></g><g id="SvgjsG1131"><path id="SvgjsPath1132" d="M316.25 218.5L316.25 169.5L205.05 169.5" stroke-dasharray="8,5" stroke="#323232" stroke-width="1" fill="none" marker-end="url(#SvgjsMarker1133)"></path></g><g id="SvgjsG1135"><path id="SvgjsPath1136" d="M114.125 191.5L114.125 207.75L114.125 207.75L114.125 222.7" stroke-dasharray="8,5" stroke="#323232" stroke-width="1" fill="none" marker-end="url(#SvgjsMarker1137)"></path></g><g id="SvgjsG1139"><path id="SvgjsPath1140" d="M114.125 268L114.125 284.25L114.125 284.25L114.125 299.2" stroke-dasharray="8,5" stroke="#323232" stroke-width="1" fill="none" marker-end="url(#SvgjsMarker1141)"></path></g><g id="SvgjsG1143"><path id="SvgjsPath1144" d="M203.75 322.5L316.25 322.5L316.25 273.8" stroke-dasharray="8,5" stroke="#323232" stroke-width="1" fill="none" marker-end="url(#SvgjsMarker1145)"></path></g><g id="SvgjsG1147" transform="translate(658,893.2222222222221)"><path id="SvgjsPath1148" d="M 0 4Q 0 0 4 0L 128.1388888888889 0Q 132.1388888888889 0 132.1388888888889 4L 132.1388888888889 42Q 132.1388888888889 46 128.1388888888889 46L 4 46Q 0 46 0 42Z" stroke="rgba(33,41,48,1)" stroke-width="1" fill-opacity="1" fill="#f19c99"></path><g id="SvgjsG1149"><text id="SvgjsText1150" font-family="微软雅黑" text-anchor="middle" font-size="16px" width="113px" fill="#323232" font-weight="400" align="middle" lineHeight="125%" anchor="middle" family="微软雅黑" size="16px" weight="400" font-style="" opacity="1" y="9" transform="rotate(0)"><tspan id="SvgjsTspan1151" dy="20" x="66.5"><tspan id="SvgjsTspan1152" style="text-decoration:;">模块化节点</tspan></tspan></text></g></g><g id="SvgjsG1153" transform="translate(658,961.8888888888891)"><path id="SvgjsPath1154" d="M 0 4Q 0 0 4 0L 128.1388888888889 0Q 132.1388888888889 0 132.1388888888889 4L 132.1388888888889 37.22222222222217Q 132.1388888888889 41.22222222222217 128.1388888888889 41.22222222222217L 4 41.22222222222217Q 0 41.22222222222217 0 37.22222222222217Z" stroke="rgba(33,41,48,1)" stroke-width="1" fill-opacity="1" fill="#67ab9f"></path><g id="SvgjsG1155"><text id="SvgjsText1156" font-family="微软雅黑" text-anchor="middle" font-size="16px" width="113px" fill="#323232" font-weight="400" align="middle" lineHeight="125%" anchor="middle" family="微软雅黑" size="16px" weight="400" font-style="" opacity="1" y="6.611111111111086" transform="rotate(0)"><tspan id="SvgjsTspan1157" dy="20" x="66.5"><tspan id="SvgjsTspan1158" style="text-decoration:;">流程节点</tspan></tspan></text></g></g><g id="SvgjsG1159" transform="translate(658,1025.7777777777783)"><path id="SvgjsPath1160" d="M 0 4Q 0 0 4 0L 128.1388888888889 0Q 132.1388888888889 0 132.1388888888889 4L 132.1388888888889 39Q 132.1388888888889 43 128.1388888888889 43L 4 43Q 0 43 0 39Z" stroke-dasharray="10,6" stroke="rgba(33,41,48,1)" stroke-width="1" fill-opacity="1" fill="#9acfbf"></path><g id="SvgjsG1161"><text id="SvgjsText1162" font-family="微软雅黑" text-anchor="middle" font-size="16px" width="113px" fill="#323232" font-weight="400" align="middle" lineHeight="125%" anchor="middle" family="微软雅黑" size="16px" weight="400" font-style="" opacity="1" y="7.5" transform="rotate(0)"><tspan id="SvgjsTspan1163" dy="20" x="66.5"><tspan id="SvgjsTspan1164" style="text-decoration:;fill: rgb(50, 50, 50);">流程子节点</tspan></tspan></text></g></g></svg>